<?xml version="1.0" standalone="no"?>
<!DOCTYPE svg PUBLIC "-//W3C//DTD SVG 1.1//EN" "http://www.w3.org/Graphics/SVG/1.1/DTD/svg11.dtd" >
<!--
2013-9-30: Created.
-->
<svg>
<metadata>
Created by iconfont
</metadata>
<defs>

<font id="iconfont" horiz-adv-x="1024" >
  <font-face
    font-family="iconfont"
    font-weight="500"
    font-stretch="normal"
    units-per-em="1024"
    ascent="896"
    descent="-128"
  />
    <missing-glyph />
    
    <glyph glyph-name="youjiantou" unicode="&#58898;" d="M384.32 98.488a30.088 30.088 0 0 0-21.288 51.392L597.144 384 363.032 618.184a30.088 30.088 0 0 0 0 42.568 30.088 30.088 0 0 0 42.568 0l255.392-255.464a30.088 30.088 0 0 0 0-42.568L405.6 107.304a30.04 30.04 0 0 0-21.28-8.816z"  horiz-adv-x="1024" />

    
    <glyph glyph-name="sousuobeifen4" unicode="&#59053;" d="M943.104-47.168a54.464 54.464 0 0 0-78.784 0l-174.528 174.144c-152-112.32-360.32-106.688-500.992 22.464C31.168 295.488 19.84 553.92 171.904 711.168 323.84 868.48 577.216 874.112 734.848 716.8c140.736-140.416 152-359.488 33.728-511.168l174.528-174.08a54.208 54.208 0 0 0 0-78.72zM678.528 604.48a279.296 279.296 0 0 1-455.936 0c-73.216-95.488-73.216-235.968 0-331.456a279.296 279.296 0 0 1 455.936 0c73.216 101.12 73.216 235.968 0 331.456z"  horiz-adv-x="1024" />

    
    <glyph glyph-name="jiaohushuoming" unicode="&#59054;" d="M512 896C233.415111 896 0 670.151111 0 384c0-286.151111 225.848889-512 512-512 286.151111 0 512 225.848889 512 512 0 286.151111-233.415111 512-512 512z m314.709333-374.954667l-341.333333-337.351111c-15.587556-14.051556-46.592-14.051556-62.122667 0l-170.666666 161.678222c-15.530667 14.051556-15.530667 42.097778 0 56.206223 15.530667 14.051556 46.535111 14.051556 62.008889 0l139.719111-126.520889 302.535111 309.248c15.530667 14.051556 46.592 14.051556 62.122666 0 31.004444-14.051556 31.004444-42.211556 7.736889-63.260445z"  horiz-adv-x="1024" />

    
    <glyph glyph-name="bianzu2" unicode="&#59055;" d="M512 384m-512 0a512 512 0 1 1 1024 0 512 512 0 1 1-1024 0ZM375.657412 512.180706C375.657412 590.968471 440.169412 655.058824 519.529412 655.058824s143.872-64.090353 143.872-142.878118c0-78.787765-64.527059-142.878118-143.872-142.878118s-143.872 64.090353-143.872 142.878118zM256 143.390118c3.102118 34.56 19.802353 156.973176 148.178824 222.539294a187.030588 187.030588 0 0 1 115.350588-39.755294c43.760941 0 83.968 15.088941 115.892706 40.161882C764.355765 301.025882 779.911529 179.486118 783.058824 143.405176c-0.752941-0.752941-526.305882-0.060235-527.058824 0z"  horiz-adv-x="1024" />

    
    <glyph glyph-name="biaoqian" unicode="&#59056;" d="M810.12992-128c-19.382857 0-38.765714 4.754286-56.758857 14.043429l-227.803429 119.515428a29.257143 29.257143 0 0 1-26.916571 0l-227.913143-119.405714a120.941714 120.941714 0 0 0-120.283429 3.913143A122.294857 122.294857 0 0 0 91.428206-4.681143V772.937143A122.953143 122.953143 0 0 0 213.979063 896H810.056777A122.953143 122.953143 0 0 0 932.571063 772.937143v-777.618286a122.038857 122.038857 0 0 0-59.026286-105.252571 121.563429 121.563429 0 0 0-63.414857-18.066286z"  horiz-adv-x="1024" />

    
    <glyph glyph-name="qianjin" unicode="&#59057;" d="M435.2 121.270857a40.374857 40.374857 0 0 0-32.182857 64.731429l152.868571 202.605714L403.602286 580.754286a40.374857 40.374857 0 0 0 63.341714 50.176L638.537143 414.281143c11.410286-14.409143 11.702857-34.742857 0.585143-49.371429l-171.593143-227.547428a40.301714 40.301714 0 0 0-32.256-16.091429zM512-62.683429a445.147429 445.147429 0 0 0-315.904 130.852572A445.001143 445.001143 0 0 0 65.316571 384a445.147429 445.147429 0 0 0 130.852572 315.904A445.147429 445.147429 0 0 0 512 830.683429a445.220571 445.220571 0 0 0 315.904-130.852572A444.854857 444.854857 0 0 0 958.683429 384a444.708571 444.708571 0 0 0-130.852572-315.904A445.220571 445.220571 0 0 0 512-62.683429z m0 812.617143A366.372571 366.372571 0 0 1 146.066286 384 366.372571 366.372571 0 0 1 512 18.066286 366.372571 366.372571 0 0 1 877.933714 384 366.372571 366.372571 0 0 1 512 749.933714z"  horiz-adv-x="1024" />

    
    <glyph glyph-name="qiyejihuo2" unicode="&#59058;" d="M319.758491 744.660528v36.902642C319.758491 802.101132 336.103849 818.716981 356.294038 818.716981H687.046038c20.190189 0 36.535547-16.615849 36.535547-37.13449v-36.921963h128.540981c20.248151 0 36.651472-16.654491 36.651472-37.13449v-740.448604c0.019321-9.814943-3.825509-19.262792-10.703698-26.218264-6.878189-6.955472-16.210113-10.877585-25.947774-10.896906H191.217509A36.902642 36.902642 0 0 0 154.566038-32.922566V707.526038a37.192453 37.192453 0 0 0 10.703698 26.237585c6.878189 6.955472 16.210113 10.877585 25.947773 10.896905h128.540982z m0-74.075773h-73.554114a18.470642 18.470642 0 0 1-18.219471-18.509283v-629.528151c0-10.104755 8.153358-18.528604 18.219471-18.528604h550.912c9.911547 0 18.219472 8.307925 18.219472 18.528604V652.075472a18.451321 18.451321 0 0 1-18.219472 18.509283H723.562264v-73.940529c0-20.518642-16.345358-37.153811-36.535547-37.153811H356.274717c-20.190189 0-36.535547 16.615849-36.535547 37.153811v73.940529z m73.418867 55.740377v-74.442868c0-9.969509 8.269283-18.316075 18.489963-18.316075h219.986113a18.238792 18.238792 0 0 1 13.022189 5.293886 18.547925 18.547925 0 0 1 5.467773 13.022189V726.325132a18.489962 18.489962 0 0 1-18.489962 18.335396H411.667321a18.238792 18.238792 0 0 1-13.022189-5.313207 18.547925 18.547925 0 0 1-5.467774-13.022189z m-110.128301-296.43834c0 20.422038 16.403321 36.999245 36.651471 37.037887h403.919698c20.248151 0 36.651472-16.441962 36.651472-37.037887a36.864 36.864 0 0 0-36.651472-37.037886H319.700528c-9.73766 0-19.069585 3.883472-25.947773 10.838943a37.095849 37.095849 0 0 0-10.703698 26.198943z m0-148.132226c0 20.441358 16.403321 36.999245 36.651471 37.037887h403.919698c20.248151 0 36.651472-16.441962 36.651472-37.037887a36.864 36.864 0 0 0-36.651472-37.018566H319.700528c-9.73766-0.019321-19.069585 3.864151-25.947773 10.819623a37.095849 37.095849 0 0 0-10.703698 26.198943z m0-148.112906c0 20.460679 16.384 37.018566 36.554868 37.018566h202.211018a36.709434 36.709434 0 0 0 36.554868-37.018566c0-20.48-16.384-37.037887-36.554868-37.037886H319.603925a36.709434 36.709434 0 0 0-36.554868 37.037886z"  horiz-adv-x="1024" />

    
    <glyph glyph-name="bianzu" unicode="&#59059;" d="M186.181818 644.654545a148.945455 148.945455 0 0 1-93.090909-138.146909v-400.337454c0-82.245818 66.606545-148.945455 148.805818-148.945455h540.206546a148.852364 148.852364 0 0 1 148.805818 148.945455V506.274909a148.945455 148.945455 0 0 1-93.090909 138.146909v-175.150545h-0.046546v-363.101091c0-28.858182-21.876364-52.596364-49.989818-55.389091l-5.678545-0.325818H241.896727c-30.72 0-55.668364 24.948364-55.668363 55.714909l0.046545 363.147636L186.181818 469.271273zM512.139636 293.515636l-3.863272 0.139637a46.312727 46.312727 0 0 0-22.528 7.912727l3.630545-2.187636a46.359273 46.359273 0 0 0-2.56 1.536l-1.070545 0.698181-314.833455 214.760728a46.545455 46.545455 0 0 0-43.147636 77.637818l4.282182 3.956364L482.490182 885.434182l0.837818 0.698182a46.219636 46.219636 0 0 0 2.466909 1.815272l-3.304727-2.513454a46.917818 46.917818 0 0 0 32.162909 10.472727 43.752727 43.752727 0 0 0 13.730909-2.885818 53.061818 53.061818 0 0 0 7.447273-3.537455l0.698182-0.465454 1.163636-0.744727c0.930909-0.651636 1.908364-1.303273 2.839273-2.048l0.744727-0.605091 325.818182-263.912728a46.359273 46.359273 0 0 0 13.498182-17.826909 46.545455 46.545455 0 0 0 8.517818-77.544727l-4.421818-3.211636-347.601455-222.301091-1.210182-0.744728a46.405818 46.405818 0 0 0-3.072-1.675636l4.282182 2.420364a46.917818 46.917818 0 0 0-24.669091-7.307637h-0.279273z m0 495.895273l-261.585454-214.621091 262.237091-178.920727 271.173818 173.381818-271.825455 220.16z"  horiz-adv-x="1024" />

    
    <glyph glyph-name="xiaoxi" unicode="&#59060;" d="M757.9136 690.7904c33.792 0 61.2352-27.392 61.2352-61.2352v-440.1664c0-33.792-27.392-61.2352-61.2352-61.2352H163.6864c-33.792 0-61.2352 27.392-61.2352 61.2352V629.8112a61.2352 61.2352 0 0 0 61.2352 60.9792h594.2272m0 102.5536H163.6864A163.7376 163.7376 0 0 1 0 629.504V189.44C0 98.9184 73.2672 25.6 163.6864 25.6h594.2272A163.7376 163.7376 0 0 1 921.6 189.44V629.76C921.6 720.3328 848.3328 793.6 757.9136 793.6v-0.256zM462.2336 384a138.0864 138.0864 0 0 0-83.968 28.0576L51.2 663.552 117.248 742.4l327.0656-251.2384a29.7984 29.7984 0 0 1 35.8912 0l323.584 250.9824L870.4 663.552l-323.584-250.9824A138.0352 138.0352 0 0 0 462.1824 384zM563.2 230.4c0-28.16-27.136-51.2-60.416-51.2H418.816C385.536 179.2 358.4 202.24 358.4 230.4s27.136 51.2 60.416 51.2h83.712c33.536 0 60.672-23.04 60.672-51.2z"  horiz-adv-x="1024" />

    
    <glyph glyph-name="qiyejihuo1" unicode="&#59061;" d="M768.212528 174.350491h54.368604a27.184302 27.184302 0 1 0 0-54.349283h-81.533585c-15.031547 0-27.184302 12.172075-27.184302 27.164981v81.533585a27.184302 27.184302 0 0 0 54.349283 0v-54.349283zM586.578113-15.36H170.273811A54.349283 54.349283 0 0 0 115.924528 39.008604V745.046943A54.349283 54.349283 0 0 0 170.273811 799.396226h651.747019a54.349283 54.349283 0 0 0 54.368604-54.349283v-366.959094a244.581434 244.581434 0 1 0-289.811321-393.428528z m161.173736 434.195321a258.627623 258.627623 0 0 0 74.307623-8.810264V745.046943H170.273811v-706.038339H526.876981a257.680906 257.680906 0 0 0-30.333585 128.618264A244.562113 244.562113 0 0 0 747.713208 418.816l0.038641 0.038642zM278.895094 609.28h325.921812a27.184302 27.184302 0 0 0 0-54.329962h-325.941132a27.184302 27.184302 0 0 0 0 54.329962z m0-162.951245H496.156981a27.184302 27.184302 0 1 0 0-54.329963H278.895094a27.184302 27.184302 0 1 0 0 54.329963z m462.152453-462.229736c105.066264 0 190.232151 85.165887 190.232151 190.232151s-85.165887 190.232151-190.251472 190.232151c-105.066264 0-190.251472-85.165887-190.251471-190.232151s85.185208-190.232151 190.251471-190.232151z"  horiz-adv-x="1024" />

    
    <glyph glyph-name="tianjia" unicode="&#59062;" d="M512 896a512 512 0 1 1 512-512 512.568889 512.568889 0 0 1-512 512zM771.299556 424.675556H552.789333v218.453333a40.675556 40.675556 0 0 1-81.351111 0v-218.453333h-218.453333a40.675556 40.675556 0 1 1 0-81.351112h218.453333v-218.453333a40.675556 40.675556 0 0 1 81.351111 0v218.453333h218.453334a40.675556 40.675556 0 1 1 0 81.351112z"  horiz-adv-x="1024" />

    
    <glyph glyph-name="qiyejihuo" unicode="&#59063;" d="M440.32 473.145962V548.226415H540.981132v-75.080453h-100.661132z m-107.809811-132.636981H231.849057v75.080453h100.661132v-75.080453z m0 132.636981H231.849057V548.226415h100.661132v-75.080453z m0-407.938415H231.849057v75.080453h100.661132V65.207547z m0 132.636981H231.849057v75.080453h100.661132v-75.080453zM627.267623 234.302792l293.115169-64.705207-64.859773-79.079849 96.101434-83.871396c9.602415-7.187321 14.413283-19.166189 14.413283-31.145057 0-11.978868-2.395774-21.581283-12.01751-31.164377-7.206642-9.583094-16.809057-14.374642-31.222339-14.374642-12.017509 0-21.639245 2.395774-31.241661 11.978868l-98.497207 83.871396-57.672453-69.496754-108.118943 277.987018zM850.712151 857.358491a48.128 48.128 0 0 0 48.050717-47.915472v-524.809661c-7.206642 28.749283-16.809057 50.311245-31.22234 67.081661-14.432604 16.789736-28.845887 33.560151-43.25917 45.539019V783.070189H559.992755v-105.433359h124.94732a48.128 48.128 0 0 0 48.050717-47.915472v-191.719849a276.460679 276.460679 0 0 1-74.481509 9.583095v158.159698H163.569509v-594.306415h319.565283c19.20483 0 36.013887-16.770415 36.013887-35.936604 0-19.185509-16.809057-35.936604-36.033207-35.936604H74.674717c-19.224151 0-36.033208 16.751094-36.033208 35.936604 0 19.166189 16.809057 35.936604 36.033208 35.936604h14.413283v618.264151c0 26.353509 21.639245 47.915472 48.050717 47.915471h345.976755V809.443019c0 26.37283 21.639245 47.934792 48.050717 47.934792h319.565283z m-180.185359-452.917133c26.430792-2.395774 52.842264-7.187321 74.48151-19.166188 24.015698-11.978868 43.239849-26.353509 62.464-45.539019 19.224151-19.166189 31.22234-43.123925 40.844075-67.100981 4.791547-16.770415 9.602415-31.145057 9.602415-45.519698l-79.273056 16.770415v4.791547c-7.225962 16.770415-14.432604 31.164377-26.430793 43.143245-12.017509 11.978868-26.430792 21.561962-40.844075 28.749283-14.413283 7.187321-31.24166 11.978868-48.050717 11.978868-16.809057 0-33.637434-2.395774-50.465811-7.187321-16.809057-7.187321-31.22234-14.374642-43.239849-26.353509-12.017509-11.978868-21.639245-26.37283-28.826566-40.747472-7.206642-14.374642-12.017509-31.145057-12.01751-47.915471 0-16.789736 2.395774-33.560151 7.206642-50.330566 9.602415-23.957736 24.015698-43.143245 43.239849-57.517887a137.216 137.216 0 0 1 67.274868-26.35351l26.430792-71.892528c-21.639245-2.395774-43.239849 0-64.859774 4.791547-21.639245 4.791547-40.844075 14.374642-57.672452 26.35351-19.224151 11.978868-33.618113 26.37283-48.050717 43.143245-14.413283 16.770415-24.035019 35.936604-33.618114 57.517887-9.621736 26.353509-14.432604 52.707019-12.03683 79.079849 2.415094 26.353509 7.206642 52.707019 19.224151 74.288302 12.017509 23.957736 26.430792 43.123925 45.654944 62.290113 19.224151 19.185509 43.239849 31.164377 69.670641 40.747472 26.430792 9.583094 52.861585 14.374642 79.292377 11.978867z"  horiz-adv-x="1024" />

    
    <glyph glyph-name="jinggao" unicode="&#58887;" d="M541.476462 560.8587709999999h-58.952924l6.447976-255.462669h46.056972l6.447976 255.462669z m-8.674063-303.361919c-5.450075 5.603598-12.972714 8.674063-20.802399 8.597301-8.05997 0-15.045277-2.84018-20.802399-8.597301-5.68036-5.450075-8.827586-13.049475-8.674063-20.879161 0-8.367016 2.916942-15.352324 8.674063-21.032684 5.757121-5.603598 12.742429-8.443778 20.802399-8.443778s15.045277 2.84018 20.802399 8.443778c5.833883 5.68036 8.674063 12.665667 8.674063 21.032684 0 8.213493-2.916942 15.198801-8.674063 20.879161zM512 678.764618C349.188606 678.764618 217.235382 546.8113940000001 217.235382 384s131.953223-294.764618 294.764618-294.764618 294.764618 131.953223 294.764618 294.764618-131.953223 294.764618-294.764618 294.764618z m0-39.301949c141.087856 0 255.462669-114.374813 255.462669-255.462669S653.087856 128.537331 512 128.537331 256.537331 242.912144 256.537331 384s114.374813 255.462669 255.462669 255.462669z m0 0"  horiz-adv-x="1024" />

    
    <glyph glyph-name="dayin" unicode="&#59052;" d="M1020.161152-24.607018H890.10097a40.487054 40.487054 0 0 0-40.998901 39.975208c0 22.111766 18.324103 40.026392 40.947716 40.026392h130.264921c12.386684 0 22.879536 10.236929 22.879536 22.367689V537.195641a22.930721 22.930721 0 0 1-22.879536 22.36769H104.877337c-12.386684 0-22.879536-10.236929-22.879536-22.36769v-459.43337c0-12.130761 10.492852-22.36769 22.879536-22.367689h137.277217c22.674798 0 10.748775-17.914626 10.748775-40.026392 0-22.111766 11.926022-40.026392-10.748775-40.026393H104.928521c-57.838648 0-104.877337 45.963811-104.877336 102.36929V537.246826c0 56.456663 47.089873 102.369289 104.928521 102.369289h915.386184c57.838648 0 104.877337-45.912626 104.877337-102.369289v-459.43337c-0.153554-56.456663-47.192242-102.369289-105.030891-102.369289zM259.659702-25.630711H246.198141a42.124963 42.124963 0 0 0-41.459563 42.790363c0 23.647306 18.580026 42.790363 41.459563 42.790363h13.461561c22.879536 0 41.459562-19.143057 41.459562-42.790363a42.124963 42.124963 0 0 0-41.459562-42.790363zM828.679396 598.924323a42.124963 42.124963 0 0 0-41.459562 42.790363v168.39748H353.327602v-168.243926a42.124963 42.124963 0 0 0-41.459562-42.790363 42.124963 42.124963 0 0 0-41.459563 42.790363V852.902529c0 23.647306 18.528841 42.790363 41.459563 42.790363H828.679396c22.879536 0 41.459562-19.143057 41.459562-42.790363V641.817055a42.176147 42.176147 0 0 0-41.459562-42.943917zM878.482055-128H247.580126C223.881636-128 204.738578-110.085374 204.738578-88.075977V292.737779c0 22.060582 19.143057 39.975207 42.841548 39.975207h630.901929c23.69849 0 42.841548-17.914626 42.841548-39.975207v-380.711387c0-22.009397-19.143057-39.975207-42.841548-39.975207z m-588.111566 80.052784h545.321203v300.658603H290.370489v-300.658603zM702.406878 117.328002H398.984305c-22.521244 0-40.691792 19.347796-40.691793 43.148655 0 23.852044 18.221733 43.19984 40.691793 43.19984h303.576127c22.470059 0 40.640608-19.347796 40.640608-43.19984 0-23.80086-18.324103-43.148655-40.794162-43.148655z m0-142.958713H398.984305c-22.521244 0-40.691792 19.347796-40.691793 43.148656 0 23.852044 18.221733 43.19984 40.691793 43.19984h303.576127c22.470059 0 40.640608-19.347796 40.640608-43.19984 0-23.80086-18.324103-43.148655-40.794162-43.148656z m170.59842 409.272418c-26.616015 0-48.318305 23.03309-48.318304 51.287014S846.389283 486.215735 873.005298 486.215735 921.323603 463.182645 921.323603 434.928721s-21.702289-51.287014-48.318305-51.287014zM870.138958 492.665c-3.53174 0-6.449265-3.173448-6.449265-7.012296 0-7.831251 12.89853-7.831251 12.898531 0 0 3.941218-2.917525 7.012296-6.449266 7.012296z"  horiz-adv-x="1126" />

    
    <glyph glyph-name="gaoguanxinxi" unicode="&#59045;" d="M528.224 224c17.472 0 31.968-13.376 31.968-29.984 0-16.64-14.272-29.984-31.968-29.984-17.472 0-31.712 13.376-31.712 29.984 0 16.64 14.24 29.984 31.712 29.984z m0-288S448-35.744 448 5.024c0 28.704 30.336 93.632 53.568 139.36 8.032-3.648 17.024-5.792 26.432-5.792 9.664 0 18.624 2.144 26.432 5.792 23.456-45.728 53.568-110.656 53.568-139.36 0.48-40.768-79.776-69.024-79.776-69.024zM869.472-64c-18.432 0-30.464 14.592-30.464 32.384 0 90.624-46.784 176.8-121.344 232-14.72 10.784-18.144 36.768-7.36 46.528 10.72 9.792 27.232 13.28 41.952 2.272C843.584 181.792 896 79.424 896-31.616 896-49.6 881.088-64 862.464-64h7.04zM509.856 800c-142.08 0-258.08-115.968-258.08-258.368 0-87.168 44.8-168.224 116.416-215.68C225.152 268.288 128 126.944 128-29.312 128-48.64 138.656-64 157.92-64c19.264 0 30.592 15.392 30.592 34.688 0 172.096 127.68 312.32 321.376 312.32 142.368 0 258.112 116 258.112 258.624C768 684.032 652.256 800 509.856 800z m0-459.36c-103.616 0-202.56 98.56-202.56 202.144 0 103.84 99.52 202.176 202.912 202.176 103.68 0 204.288-98.56 204.288-202.176 0.192-103.584-100.992-202.144-204.64-202.144z"  horiz-adv-x="1024" />

    
    <glyph glyph-name="jibenxinxi" unicode="&#59046;" d="M686.144 799.04H253.568C184.512 799.04 128 743.04 128 674.56v-580.928c0-68.48 56.512-124.48 125.568-124.48h516.256c69.28 0.16 125.44 55.808 125.6 124.48V591.584L686.144 799.072z m139.52-705.408a55.744 55.744 0 0 0-55.84-55.328H253.568a55.712 55.712 0 0 0-55.808 55.328V674.56a55.744 55.744 0 0 0 55.808 55.36H588.48v-179.84a55.744 55.744 0 0 1 55.808-55.328h181.376v-401.12zM672.192 563.904a13.92 13.92 0 0 0-13.952 13.856V729.888l167.424-165.984h-153.472zM590.4 229.984h-235.744c-19.392 0-34.656-15.392-34.656-34.976S335.264 160 354.656 160h235.712c19.424 0 34.688 15.424 34.688 35.008 0 19.584-15.264 34.976-34.688 34.976zM320 349.024c-0.096-9.344 3.52-18.272 10.048-24.864 6.528-6.592 15.392-10.24 24.64-10.144h346.656c19.392 0 34.656 15.392 34.656 34.976S720.736 384 701.344 384H354.656a34.144 34.144 0 0 1-24.608-10.144 34.848 34.848 0 0 1-10.048-24.864z"  horiz-adv-x="1024" />

    
    <glyph glyph-name="dengji1" unicode="&#59047;" d="M610.4 173.504l9.856-13.504h17.152l17.92 0.448 107.84 154.368 4.832 7.168V646.592c0 62.656-52.288 115.84-119.04 120.96-36.416 2.816-72.896-8.16-99.808-30.24-26.88-22.08-42.336-53.44-42.336-86.08v-321.376l0.16-8.352 103.424-148z m27.008 64.96l-38.72 55.36h77.44l-38.72-55.36z m-46.72 458.368c14.432 11.84 33.28 17.6 52.992 16 35.296-2.72 62.912-31.808 62.912-66.24v-299.136h-138.368V651.2c0 17.568 8 33.76 22.464 45.632zM285.984 427.84h121.696c16.544 0 29.984 12.032 29.984 26.848 0 14.784-13.44 26.784-29.984 26.784H285.984c-16.576 0-29.984-12-29.984-26.784 0-14.816 13.44-26.816 29.984-26.816zM285.984 302.784h161.664c16.544 0 29.952 12 29.952 26.816 0 14.816-13.44 26.816-29.952 26.816H285.984c-16.576 0-29.984-12-29.984-26.816 0-14.816 13.44-26.816 29.984-26.816zM285.984 177.696h221.6c16.544 0 29.952 12.032 29.952 26.816 0 14.816-13.44 26.816-29.952 26.816H285.984c-16.576 0-29.984-12-29.984-26.816 0-14.784 13.44-26.816 29.984-26.816zM830.336 640h-21.088c-15.904 0-28.8-12.16-28.8-27.2s12.896-27.264 28.8-27.264h21.088c4.48 0 8.128-3.424 8.128-7.68v-515.712c0-4.256-3.648-7.68-8.128-7.68H193.664a7.904 7.904 0 0 0-8.096 7.68V577.856c0 4.256 3.616 7.68 8.096 7.68H464c15.904 0 28.8 12.192 28.8 27.232S479.84 640 463.936 640H193.664C157.472 640 128 612.128 128 577.856v-515.712C128 27.904 157.44 0 193.664 0h636.64C866.56 0 896 27.872 896 62.144V577.856C896 612.096 866.56 640 830.336 640z"  horiz-adv-x="1024" />

    
    <glyph glyph-name="qiye" unicode="&#59048;" d="M412.512 416H280.192c-13.376 0-24.192-11.648-24.192-26.016 0-14.368 10.816-25.984 24.192-25.984h132.32c13.376 0 24.192 11.616 24.192 25.984 0 14.4-10.816 26.016-24.192 26.016z m0-172H280.192c-13.376 0-24.192-11.616-24.192-25.984 0-14.4 10.816-26.016 24.192-26.016h132.32c13.376 0 24.192 11.648 24.192 26.016 0 14.368-10.816 25.984-24.192 25.984z m326.848 0H631.04c-15.84 0-28.64-11.616-28.64-25.984 0-14.4 12.8-26.016 28.64-26.016h108.32c15.808 0 28.64 11.648 28.64 26.016 0 14.368-12.8 25.984-28.64 25.984zM891.2 23.808V368.032c0 9.6-5.056 18.528-13.44 23.648L557.504 588.16V740.16a27.776 27.776 0 0 1-14.336 24.064 29.6 29.6 0 0 1-28.672 0.16L142.592 559.68a27.776 27.776 0 0 1-14.592-24.192v-511.68H32V-32h960v55.808h-100.8z m-705.6 0V519.36l314.496 173.024V24l-314.496-0.192z m372.096 0V521.536l276.096-169.28v-328.8l-276.096 0.352z"  horiz-adv-x="1024" />

    
    <glyph glyph-name="shuju3" unicode="&#59049;" d="M873.76 767.04l-195.744-51.52a15.008 15.008 0 1 1-7.424-26.016l52.48-46.976-146.24-103.968-111.136 78.848a36.064 36.064 0 0 1-41.088 0l-242.624-172.48a27.52 27.52 0 0 1-5.312-41.536c6.624-7.232 16.032-11.328 25.92-11.2 7.36-0.032 14.496 2.208 20.512 6.4l222.08 157.696 111.168-78.848c12.32-8.544 28.736-8.544 41.056 0l172.704 122.816 44.48-39.776a18.24 18.24 0 0 1 29.248 7.168L895.648 748.032a16.48 16.48 0 0 1-5.344 15.872 16.832 16.832 0 0 1-16.544 3.168zM287.52 365.824H229.312A67.264 67.264 0 0 1 160 301.12v-268.288a67.264 67.264 0 0 1 69.312-64.736h58.208a67.264 67.264 0 0 1 69.312 64.736v268.224a67.264 67.264 0 0 1-69.312 64.8z m9.92-333.024a9.536 9.536 0 0 0-9.92-9.28H229.312a9.728 9.728 0 0 0-6.912 2.592 9.536 9.536 0 0 0-3.008 6.688v268.224a9.696 9.696 0 0 0 9.92 9.28h58.208a9.696 9.696 0 0 0 9.92-9.28v-268.224z m253.472 299.84h-58.176a69.312 69.312 0 0 1-69.312-68.96v-226.688c0-37.984 30.976-68.8 69.312-68.992h58.176a69.312 69.312 0 0 1 69.344 68.992V263.68c0 37.984-31.008 68.8-69.344 68.992z m9.952-295.648a9.92 9.92 0 0 0-9.92-9.856h-58.208a9.92 9.92 0 0 0-9.92 9.856V263.68c0 5.44 4.416 9.856 9.92 9.856h58.176a9.984 9.984 0 0 0 9.952-9.856v-226.688z m255.168 413.984h-58.432a69.312 69.312 0 0 1-69.312-68.992v-344.96c0-37.984 30.976-68.8 69.312-68.96h58.176a69.312 69.312 0 0 1 69.312 68.992v344.96a69.312 69.312 0 0 1-69.056 68.96z m9.92-413.92a9.92 9.92 0 0 0-9.92-9.856h-58.432a9.984 9.984 0 0 0-7.04 2.88 9.824 9.824 0 0 0-2.88 6.976v344.96c0 5.44 4.416 9.824 9.92 9.824h58.176a9.92 9.92 0 0 0 9.92-9.856l0.288-344.96z"  horiz-adv-x="1024" />

    
    <glyph glyph-name="yunyingguanli" unicode="&#59050;" d="M872.51424 712.576c-74.592 74.528-205.92 72-344.544 3.424C389.34624 784.64 258.01824 787.104 183.42624 712.576 121.41024 650.656 112.77024 549.664 150.85024 438.016a84.928 84.928 0 0 1 11.52-108.8c-49.696-121.504-47.488-236.256 21.088-304.736 74.592-74.496 205.952-72.032 344.672-3.36 135.84-67.168 268.48-72.448 344.384 3.36 75.936 75.84 70.592 208.352 3.264 344.032 67.328 135.744 72.672 268.224-3.264 344.064zM832.29024 64.64c-85.696-85.568-295.68-26.112-465.216 143.232a28.48 28.48 0 0 1-40.224 0 28.352 28.352 0 0 1 0-40.16 811.456 811.456 0 0 1 139.904-112.128C362.56224 13.056 272.00224 16.416 223.68224 64.672c-49.6 49.504-50.272 140.576-9.472 241.28 2.496-0.224 4.896-0.768 7.456-0.768A85.28 85.28 0 0 1 306.97824 390.4c0 18.656-6.176 35.744-16.352 49.792a772.64 772.64 0 0 0 76.48 89.024 28.384 28.384 0 0 1 0 40.16 28.48 28.48 0 0 1-40.256 0A829.248 829.248 0 0 1 243.77824 472.32a82.624 82.624 0 0 1-22.112 3.296 85.344 85.344 0 0 1-22.016-3.2c-25.504 85.6-17.568 158.496 24 200 55.456 55.36 166.464 51.648 289.92-12.64 4.544-2.24 9.6-3.168 14.688-2.688a27.68 27.68 0 0 1 14.24 2.752c123.392 64.224 234.368 67.936 289.792 12.576 49.792-49.696 50.24-141.312 8.96-242.496A781.088 781.088 0 0 1 781.12224 512c5.792 10.272 9.376 21.984 9.376 34.624a71.04 71.04 0 0 1-71.104 71.04 71.04 71.04 0 0 1-71.104-71.04 71.04 71.04 0 0 1 71.104-71.04c5.664 0 11.104 0.864 16.352 2.112a706.56 706.56 0 0 0 75.936-109.12c-28.032-50.336-65.792-101.28-112.16-149.44-2.88 0.32-5.632 0.832-8.576 0.832a70.976 70.976 0 1 1-33.216-133.856 71.2 71.2 0 0 1 86.304 15.68 70.944 70.944 0 0 1 5.408 87.424 799.648 799.648 0 0 1 91.744 117.952c41.312-101.184 40.864-192.8-8.928-242.528zM528.00224 480a112 112 0 1 1 0-224 112 112 0 0 1 0 224z m0-168a56 56 0 1 0 0 112 56 56 0 0 0 0-112z"  horiz-adv-x="1024" />

    
    <glyph glyph-name="bianzu3" unicode="&#59051;" d="M188.96 544c-17.376 0-28.96-11.936-28.96-29.856v-388.288c0-17.92 11.584-29.856 28.96-29.856h550.08c17.376 0 28.96 11.936 28.96 29.856V514.144c0 17.92-11.584 29.856-28.96 29.856H188.96zM184.32 608h559.36C793.728 608 832 568.576 832 517.056v-394.112C832 71.424 793.728 32 743.68 32H184.32C134.272 32 96 71.424 96 122.944V517.056C96 568.576 134.272 608 184.32 608z m69.024 35.36c-17.6 0-29.344 12.16-29.344 30.336S235.744 704 253.344 704H840C889.856 704 928 664.576 928 613.056v-454.72c0-18.24-11.744-30.336-29.344-30.336s-29.312 12.128-29.312 30.304V613.024c0 18.24-11.744 30.336-29.344 30.336H253.344zM494.464 121.6v34.944c52.992 6.144 83.712 41.856 83.712 94.464 0 42.24-22.272 66.432-82.944 91.008-41.856 16.896-54.144 28.032-54.144 46.848 0 14.976 9.984 28.416 27.264 28.416 24.96 0 39.552-19.2 42.24-56.064l64.512 14.208c-6.912 49.92-34.944 80.256-80.64 86.784V497.92h-42.24v-36.48c-46.848-7.68-76.416-39.552-76.416-85.248 0-38.4 21.888-62.208 81.408-88.704 43.008-19.2 56.448-31.104 56.448-50.688 0-18.816-12.288-31.104-33.792-31.104-30.336 0-48 17.664-53.76 53.376l-64.128-17.664c10.752-49.152 40.704-77.184 90.24-84.096V121.6h42.24z"  horiz-adv-x="1024" />

    
    <glyph glyph-name="search" unicode="&#58902;" d="M882.6369-8.308991 730.351542 187.807642c7.884574 6.656607 15.529695 13.647835 22.890336 21.0095 33.348526 33.350572 59.533908 72.194252 77.8296 115.453499 18.948561 44.803415 28.555359 92.378967 28.555359 141.40659 0 49.021483-9.607822 96.593965-28.556383 141.393287-18.295692 43.256176-44.481074 82.09781-77.828576 115.446335S681.053766 782.051785 637.797589 800.347476C592.99929 819.296037 545.429879 828.903859 496.409418 828.903859c-49.021483 0-96.593965-9.607822-141.394311-28.556383-43.256176-18.295692-82.098833-44.482097-115.446335-77.830623-33.348526-33.347502-59.533908-72.189136-77.830623-115.446335-18.948561-44.800345-28.556383-92.371804-28.556383-141.393287 0-49.027623 9.607822-96.603175 28.556383-141.40659 18.295692-43.259246 44.481074-82.10395 77.8296-115.453499 33.347502-33.349549 72.189136-59.536978 115.446335-77.833693 44.800345-18.948561 92.371804-28.556383 141.394311-28.556383 49.019437 0 96.590895 9.608845 141.389194 28.557406 12.920264 5.465478 25.436322 11.649318 37.541011 18.502399l154.415882-198.860117c11.339256-14.603603 31.987528-17.545608 46.119387-6.572696l1.705851 1.325182C891.713626-43.6458 893.977179-22.912593 882.6369-8.308991zM496.409418 163.826462c-166.428473 0-301.82928 135.410016-301.82928 301.851792 0 166.428473 135.399783 301.828256 301.82928 301.828256 166.423357 0 301.818023-135.399783 301.818023-301.828256C798.228465 299.236478 662.832775 163.826462 496.409418 163.826462z"  horiz-adv-x="1024" />

    
    <glyph glyph-name="huaban" unicode="&#59044;" d="M568.32 384.341333c-9.728 0-19.484444-9.016889-19.484444-20.167111 0-9.016889 9.728-18.062222 19.484444-18.062222 14.592 0 25.031111 9.045333 25.031111 18.062222 0 11.121778-10.439111 20.195556-25.031111 20.195556z m-63.971556 93.866667c15.303111 0 25.031111 9.728 25.031112 24.32 0 15.303111-9.728 24.32-25.031112 24.32-14.592 0-28.501333-9.016889-28.501333-24.32 0-14.620444 13.937778-24.32 28.501333-24.32zM512 810.666667C276.366222 810.666667 85.333333 619.633778 85.333333 384c0-235.633778 191.032889-426.666667 426.666667-426.666667 235.633778 0 426.666667 191.032889 426.666667 426.666667 0 235.633778-191.032889 426.666667-426.666667 426.666667z m-80.64-534.755556c-25.713778 0-44.487111 4.152889-68.835556 11.093333l-70.200888-35.441777 20.195555 59.790222c-49.379556 34.759111-78.592 78.563556-78.592 132.096 0 94.520889 89.002667 166.826667 197.432889 166.826667 95.943111 0 181.447111-57.002667 198.115556-137.671112a96.540444 96.540444 0 0 1-18.773334 2.104889c-94.520889 0-167.537778-70.912-167.537778-156.416 0-14.592 2.104889-27.790222 5.575112-41.699555-5.546667-0.682667-11.804444-0.682667-17.351112-0.682667z m289.877333-68.124444l13.909334-50.062223-52.821334 29.866667c-20.195556-4.152889-39.623111-10.410667-59.790222-10.410667-93.155556 0-166.855111 63.971556-166.855111 143.217778s73.699556 143.189333 166.855111 143.189334c88.291556 0 167.537778-63.943111 167.537778-143.189334 0-44.487111-29.895111-84.110222-68.835556-112.64zM366.705778 526.848c-14.592 0-29.866667-9.016889-29.866667-24.32 0-14.592 15.274667-24.348444 29.866667-24.348444 13.937778 0 25.031111 9.756444 25.031111 24.348444 0 15.274667-11.093333 24.32-25.031111 24.32z m310.755555-142.506667c-10.439111 0-19.484444-9.016889-19.484444-20.167111 0-9.016889 9.045333-18.062222 19.484444-18.062222 13.880889 0 24.32 9.045333 24.32 18.062222 0 11.121778-10.439111 20.195556-24.32 20.195556z"  horiz-adv-x="1024" />

    
    <glyph glyph-name="shouji1" unicode="&#58901;" d="M760.32-128H263.68c-56.32 0-102.4 46.08-102.4 102.4V793.6c0 56.32 46.08 102.4 102.4 102.4h494.08c56.32 0 102.4-46.08 102.4-102.4v-819.2c2.56-56.32-43.52-102.4-99.84-102.4zM263.68 844.8c-28.16 0-51.2-23.04-51.2-51.2v-819.2c0-28.16 23.04-51.2 51.2-51.2h494.08c28.16 0 51.2 23.04 51.2 51.2V793.6c0 28.16-23.04 51.2-51.2 51.2H263.68zM593.92 734.72h-161.28c-15.36 0-25.6 10.24-25.6 25.6s10.24 25.6 25.6 25.6h161.28c15.36 0 25.6-10.24 25.6-25.6s-12.8-25.6-25.6-25.6zM186.88 133.12h647.68v-51.2H186.88zM512 7.68m-43.52 0a43.52 43.52 0 1 1 87.04 0 43.52 43.52 0 1 1-87.04 0Z"  horiz-adv-x="1024" />

    
    <glyph glyph-name="mima1" unicode="&#59037;" d="M741.376 476.20096H355.9424c6.63552 51.28192-41.45152 259.76832 136.11008 264.84736 168.83712 5.85728 142.5408-190.2592 142.5408-190.2592l82.69824-0.49152s24.04352 262.51264-225.28 263.7824c-271.9744-12.6976-208.15872-297.24672-216.4736-337.87904H282.624c-54.272 0-98.304-40.42752-98.304-90.23488v-300.8512C184.32 35.30752 228.352-5.12 282.624-5.12h458.752c54.272 0 98.304 40.42752 98.304 90.23488v300.8512c0 49.80736-44.032 90.23488-98.304 90.23488z m-196.608-262.38976v-68.52608c0-16.5888-14.7456-30.06464-32.768-30.06464-18.0224 0-32.768 13.5168-32.768 30.06464v68.52608c-19.49696 10.40384-32.768 29.61408-32.768 51.8144 0 33.21856 29.36832 60.17024 65.536 60.17024 36.20864 0 65.536-26.95168 65.536-60.2112 0-22.15936-13.23008-41.3696-32.768-51.77344z"  horiz-adv-x="1064" />

    
    <glyph glyph-name="bianzu42" unicode="&#59038;" d="M895.8464 497.8176A18.7904 18.7904 0 0 0 921.6 480.256v-339.968a37.6832 37.6832 0 0 0-37.5296-37.8368H191.1296A37.6832 37.6832 0 0 0 153.6 140.2368V460.0832c0 13.2096 13.0048 22.3232 25.344 17.7152l330.1376-124.16a37.2736 37.2736 0 0 1 27.0336 0.256zM884.0704 691.2c20.736 0 37.5296-16.4352 37.5296-36.7616V583.68c0-7.5776-4.7104-14.336-11.9808-17.1008l-371.8144-141.6704a38.5024 38.5024 0 0 0-26.7776-0.2048L165.888 550.144A18.5344 18.5344 0 0 0 153.6 567.3472v87.04C153.6 674.7648 170.3936 691.2 191.1296 691.2z"  horiz-adv-x="1024" />

    
    <glyph glyph-name="bianzu41" unicode="&#59039;" d="M537.6512 610.816c-83.5584 0-151.296-68.5056-151.296-152.9856s67.7376-152.9856 151.296-152.9856c83.5584 0 151.296 68.5056 151.296 152.9856-0.1024 84.48-67.7888 152.8832-151.296 152.9856z m-5.632 182.7328l14.8992-0.1024c177.7152-6.5536 319.5392-152.0128 323.4304-331.776 1.0752-77.2608-27.0848-137.6768-69.4784-204.6464l-1.3312-1.8432-189.3376-245.4016a91.8016 91.8016 0 0 0-72.3456-35.3792c-28.16 0-54.784 13.056-72.2944 35.3792l-190.5664 246.9888C228.352 328.2944 204.8 395.7248 204.8 457.0624c0 90.88 36.352 177.8688 100.7616 241.2544a330.9568 330.9568 0 0 0 241.3568 95.1296z"  horiz-adv-x="1024" />

    
    <glyph glyph-name="jiantouarrowheads3" unicode="&#59040;" d="M518.71744 586.58816a38.5024 38.5024 0 0 0 0 52.71552 34.6112 34.6112 0 0 0 50.46272 0l219.09504-228.9664c6.9632-7.24992 10.4448-16.7936 10.4448-26.33728a38.0928 38.0928 0 0 0-10.4448-26.37824l-219.09504-228.9664a34.6112 34.6112 0 0 0-50.46272 0 38.5024 38.5024 0 0 0 0 52.75648l193.86368 202.58816-193.86368 202.58816zM470.54848 384l-193.86368-202.58816a38.5024 38.5024 0 0 1 0-52.71552 34.6112 34.6112 0 0 1 50.46272 0l219.09504 228.9664a38.05184 38.05184 0 0 1 10.4448 26.33728 38.0928 38.0928 0 0 1-10.4448 26.37824l-219.09504 228.9664a34.6112 34.6112 0 0 1-50.46272 0 38.5024 38.5024 0 0 1 0-52.75648l193.86368-202.58816z"  horiz-adv-x="1064" />

    
    <glyph glyph-name="yuechi" unicode="&#59041;" d="M163.2256 120.79104a67.82976 67.82976 0 0 1 0-95.8464 67.62496 67.62496 0 0 1 95.72352 0l19.08736 18.92352 79.70816-79.70816a34.6112 34.6112 0 0 1 49.152 0l118.784 118.784a34.6112 34.6112 0 0 1 0 49.152l-79.70816 79.6672 142.00832 142.1312a221.83936 221.83936 0 1 1-95.72352 95.72352l-329.03168-328.82688zM604.16 551.19872a85.36064 85.36064 0 1 0 170.72128-0.04096 85.36064 85.36064 0 0 0-170.72128 0.04096z"  horiz-adv-x="1064" />

    
    <glyph glyph-name="bianzu4" unicode="&#59042;" d="M153.6 358.4a384 384 0 1 1 768 0 384 384 0 0 1-768 0z m443.904-85.504l12.3904 7.424c4.8128 2.8672 8.8064 5.0176 12.8 6.656 28.0576 12.4416 52.7872 3.6864 85.504-33.536 20.1728-23.04 26.1632-43.4176 18.3296-61.6448-5.8368-13.6192-16.9984-23.04-36.9152-34.6112-1.3312-0.768-12.8-7.2192-15.7696-9.0112-46.4384-27.904-152.832 35.9424-229.376 145.1008-76.6976 109.4144-96.5632 226.1504-49.5104 254.3616l6.144 3.84 6.7584 4.2496c23.7568 15.0016 39.0144 20.9408 57.0368 17.92 18.0224-2.9184 33.3824-15.9744 46.336-39.6288 27.3408-50.0736 21.3504-73.8304-13.824-95.3344-2.56-1.6384-11.52-6.8608-12.3904-7.3728-8.6016-5.1712 5.9904-40.0384 39.936-88.4736 34.4576-48.8448 63.1808-75.5712 72.6016-69.9904z"  horiz-adv-x="1024" />

    
    <glyph glyph-name="shouji" unicode="&#59043;" d="M699.588923 876.307692h-363.913846C280.851692 876.307692 236.307692 831.251692 236.307692 775.955692v-783.911384c0-55.296 44.583385-100.352 99.328-100.352h363.953231c54.784 0 99.367385 45.056 99.367385 100.352V775.955692C798.956308 831.251692 754.372923 876.307692 699.588923 876.307692zM428.347077 790.606769h178.491077c6.852923-0.275692 12.248615-5.907692 12.248615-12.642461a12.721231 12.721231 0 0 0-12.209231-12.642462H428.307692a12.8 12.8 0 0 0-11.500307 6.144 12.524308 12.524308 0 0 0 0 12.996923 12.8 12.8 0 0 0 11.500307 6.144z m89.206154-831.015384a47.222154 47.222154 0 0 0-47.419077 46.946461c0 25.954462 21.228308 46.985846 47.419077 46.985846 26.230154 0 47.458462-21.031385 47.458461-46.985846 0-25.915077-21.188923-46.946462-47.379692-46.985846H517.513846zM269.469538 121.304615h496.324924V679.542154H269.469538V121.304615z"  horiz-adv-x="1024" />

    


  </font>
</defs>
</svg>
